# xmcd
#
# Track frame offsets: 
#        150
#        31322
#        49142
#        73221
#        92270
#        125174
#        147885
#        165904
#        196938
#        223413
#        255286
#        273048
#        298125
#        322522
#
# Disc length: 4560 seconds
#
# Revision: 0
# Processed by: cddbd v1.5.2PL0 Copyright (c) Steve Scherf et al.
# Submitted via: ExactAudioCopy v0.99pb5
#
DISCID=c711ce0e
DTITLE=Various Artist - Rare Funky Groove Collector [CD 2)
DYEAR=2005
DGENRE=Disco
TTITLE0=Tony Worrell's Box Office - Everything You Do
TTITLE1=Carl Smith - Come Back Lover
TTITLE2=Clausell - I Will Be (What You Want Me To Be)
TTITLE3=Art School and The Mighty Motor Gang - Hold On Tight
TTITLE4=R.B. Hudmon - Searching For Your Love
TTITLE5=Crosswind - Get Ready
TTITLE6=Gang's Back - Magic Touch
TTITLE7=Jimmy Silver - Love Is
TTITLE8=The Creations - Kinky Girl
TTITLE9=Linda Jones - Body Fever (Let's Go Party)
TTITLE10=Superior Movement - We're Jammin'
TTITLE11=Doni Hagan - Would You Like To Dance
TTITLE12=Proton Plus - Pay Up
TTITLE13=Janet Kay - Eternally Grateful
EXTD=
EXTT0=
EXTT1=
EXTT2=
EXTT3=
EXTT4=
EXTT5=
EXTT6=
EXTT7=
EXTT8=
EXTT9=
EXTT10=
EXTT11=
EXTT12=
EXTT13=
PLAYORDER=
